<?xml version="1.0" encoding="UTF-8" standalone="no"?>
<!-- Created with Inkscape (http://www.inkscape.org/) -->

<svg
   width="7.2998133mm"
   height="7.0279946mm"
   viewBox="0 0 7.2998133 7.0279946"
   version="1.1"
   id="svg1"
   xmlns="http://www.w3.org/2000/svg"
   xmlns:svg="http://www.w3.org/2000/svg">
  <defs
     id="defs1" />
  <g
     id="layer1"
     transform="translate(-93.64609,-110.78615)">
    <g
       fill="#000000"
       fill-opacity="1"
       id="g1487"
       transform="matrix(0.35277777,0,0,0.35277777,-7.6729167,-80.9625)"
       style="fill:#ffffff">
      <g
         id="use1487"
         transform="translate(285.01599,558.47699)"
         style="fill:#ffffff">
        <path
           d="m 6.53125,-14.1875 c 0.109375,-0.21875 0.109375,-0.25 0.109375,-0.359375 0,-0.21875 -0.1875,-0.390625 -0.40625,-0.390625 -0.171875,0 -0.3125,0.09375 -0.453125,0.453125 L 2.296875,-5.34375 C 2.25,-5.21875 2.1875,-5.09375 2.1875,-4.984375 c 0,0.0625 0,0.109375 0.109375,0.34375 L 5.78125,4.5 c 0.078125,0.21875 0.171875,0.484375 0.453125,0.484375 0.21875,0 0.40625,-0.1875 0.40625,-0.40625 0,-0.0625 0,-0.09375 -0.109375,-0.3125 l -3.515625,-9.25 z m 0,0"
           id="path5"
           style="fill:#ffffff" />
      </g>
    </g>
    <g
       fill="#000000"
       fill-opacity="1"
       id="g1489"
       transform="matrix(0.35277777,0,0,0.35277777,-7.6729167,-80.9625)"
       style="fill:#ffffff">
      <g
         id="use1489"
         transform="translate(304.724,558.47699)"
         style="fill:#ffffff">
        <path
           d="m 3.171875,-14.21875 c 0,-0.359375 0,-0.71875 -0.40625,-0.71875 -0.390625,0 -0.390625,0.359375 -0.390625,0.71875 V 4.265625 c 0,0.359375 0,0.71875 0.390625,0.71875 0.40625,0 0.40625,-0.359375 0.40625,-0.71875 z m 0,0"
           id="path4"
           style="fill:#ffffff" />
      </g>
    </g>
    <g
       id="use1488"
       transform="matrix(0.35277777,0,0,0.35277777,95.607718,116.05577)"
       style="fill:#ffffff">
      <path
         d="m 1.75,-1.171875 c -0.0625,0.296875 -0.171875,0.75 -0.171875,0.859375 0,0.359375 0.28125,0.53125 0.578125,0.53125 0.234375,0 0.59375,-0.15625 0.734375,-0.5625 0.015625,-0.03125 0.25,-0.96875 0.375,-1.46875 l 0.4375,-1.796875 c 0.125,-0.4375 0.234375,-0.875 0.34375,-1.328125 0.078125,-0.34375 0.234375,-0.921875 0.25,-1 0.3125,-0.609375 1.359375,-2.421875 3.25,-2.421875 0.90625,0 1.078125,0.734375 1.078125,1.390625 0,1.234375 -0.96875,3.78125 -1.296875,4.640625 C 7.15625,-1.875 7.125,-1.640625 7.125,-1.421875 c 0,0.9375 0.703125,1.640625 1.640625,1.640625 1.875,0 2.609375,-2.90625 2.609375,-3.0625 0,-0.203125 -0.171875,-0.203125 -0.234375,-0.203125 -0.203125,0 -0.203125,0.0625 -0.296875,0.359375 -0.40625,1.359375 -1.0625,2.46875 -2.03125,2.46875 -0.34375,0 -0.484375,-0.203125 -0.484375,-0.65625 0,-0.5 0.171875,-0.984375 0.359375,-1.421875 0.375,-1.046875 1.21875,-3.234375 1.21875,-4.375 0,-1.34375 -0.859375,-2.140625 -2.296875,-2.140625 C 5.8125,-8.8125 4.84375,-7.53125 4.5,-7.078125 4.40625,-8.1875 3.578125,-8.8125 2.671875,-8.8125 c -0.921875,0 -1.296875,0.78125 -1.5,1.140625 -0.3125,0.671875 -0.59375,1.859375 -0.59375,1.9375 0,0.203125 0.203125,0.203125 0.234375,0.203125 0.203125,0 0.21875,-0.03125 0.34375,-0.46875 0.34375,-1.40625 0.734375,-2.359375 1.453125,-2.359375 0.40625,0 0.625,0.25 0.625,0.90625 0,0.421875 -0.0625,0.640625 -0.328125,1.671875 z m 0,0"
         id="path1"
         style="fill:#ffffff" />
    </g>
  </g>
</svg>
