<?xml version="1.0" encoding="UTF-8" standalone="no"?>
<!-- Created with Inkscape (http://www.inkscape.org/) -->

<svg
   width="7.91153mm"
   height="7.0279946mm"
   viewBox="0 0 7.91153 7.0279946"
   version="1.1"
   id="svg1"
   xmlns="http://www.w3.org/2000/svg"
   xmlns:svg="http://www.w3.org/2000/svg">
  <defs
     id="defs1" />
  <g
     id="layer1"
     transform="translate(87.634772,-133.51456)">
    <g
       fill="#000000"
       fill-opacity="1"
       id="g1490"
       transform="matrix(0.35277777,0,0,0.35277777,-188.64792,-69.585417)"
       style="fill:#ffffff">
      <g
         id="use1490"
         transform="translate(284.14899,590.65399)"
         style="fill:#ffffff">
        <path
           d="m 6.53125,-14.1875 c 0.109375,-0.21875 0.109375,-0.25 0.109375,-0.359375 0,-0.21875 -0.1875,-0.390625 -0.40625,-0.390625 -0.171875,0 -0.3125,0.09375 -0.453125,0.453125 L 2.296875,-5.34375 C 2.25,-5.21875 2.1875,-5.09375 2.1875,-4.984375 c 0,0.0625 0,0.109375 0.109375,0.34375 L 5.78125,4.5 c 0.078125,0.21875 0.171875,0.484375 0.453125,0.484375 0.21875,0 0.40625,-0.1875 0.40625,-0.40625 0,-0.0625 0,-0.09375 -0.109375,-0.3125 l -3.515625,-9.25 z m 0,0"
           id="path4"
           style="fill:#ffffff" />
      </g>
    </g>
    <g
       fill="#000000"
       fill-opacity="1"
       id="g1491"
       transform="matrix(0.35277777,0,0,0.35277777,-188.64792,-69.585417)"
       style="fill:#ffffff">
      <g
         id="use1491"
         transform="translate(291.897,590.65399)"
         style="fill:#ffffff">
        <path
           d="M 9.609375,-13.3125 C 9.625,-13.390625 9.65625,-13.5 9.65625,-13.609375 c 0,-0.203125 -0.140625,-0.21875 -0.234375,-0.21875 -0.203125,0 -0.21875,0.04687 -0.296875,0.40625 L 5.8125,-0.265625 C 4.296875,-0.4375 3.546875,-1.171875 3.546875,-2.484375 c 0,-0.40625 0,-0.921875 1.078125,-3.71875 0.078125,-0.234375 0.21875,-0.5625 0.21875,-0.96875 0,-0.890625 -0.640625,-1.640625 -1.640625,-1.640625 -1.890625,0 -2.625,2.890625 -2.625,3.078125 0,0.203125 0.203125,0.203125 0.234375,0.203125 0.203125,0 0.21875,-0.046875 0.328125,-0.359375 0.53125,-1.90625 1.328125,-2.46875 2,-2.46875 0.171875,0 0.5,0 0.5,0.625 0,0.515625 -0.1875,1.015625 -0.453125,1.71875 C 2.234375,-3.5 2.234375,-2.984375 2.234375,-2.65625 c 0,1.90625 1.546875,2.71875 3.46875,2.828125 -0.171875,0.71875 -0.171875,0.765625 -0.4375,1.8125 -0.0625,0.234375 -0.46875,1.84375 -0.46875,1.90625 0,0.015625 0,0.1875 0.25,0.1875 0.03125,0 0.125,0 0.171875,-0.078125 0.0625,-0.03125 0.1875,-0.53125 0.234375,-0.8125 L 6.21875,0.21875 c 0.734375,0 2.484375,0 4.359375,-2.125 0.8125,-0.921875 1.234375,-1.796875 1.453125,-2.390625 0.1875,-0.5 0.625,-2.234375 0.625,-3.109375 0,-1.125 -0.546875,-1.40625 -0.875,-1.40625 -0.5,0 -1,0.53125 -1,0.96875 0,0.25 0.109375,0.375 0.296875,0.53125 0.21875,0.21875 0.71875,0.734375 0.71875,1.6875 0,1.28125 -1.046875,2.921875 -1.734375,3.640625 -1.75,1.765625 -3.03125,1.765625 -3.75,1.765625 z m 0,0"
           id="path1"
           style="fill:#ffffff" />
      </g>
    </g>
    <g
       fill="#000000"
       fill-opacity="1"
       id="g1492"
       transform="matrix(0.35277777,0,0,0.35277777,-188.64792,-69.585417)"
       style="fill:#ffffff">
      <g
         id="use1492"
         transform="translate(305.591,590.65399)"
         style="fill:#ffffff">
        <path
           d="m 3.171875,-14.21875 c 0,-0.359375 0,-0.71875 -0.40625,-0.71875 -0.390625,0 -0.390625,0.359375 -0.390625,0.71875 V 4.265625 c 0,0.359375 0,0.71875 0.390625,0.71875 0.40625,0 0.40625,-0.359375 0.40625,-0.71875 z m 0,0"
           id="path3"
           style="fill:#ffffff" />
      </g>
    </g>
  </g>
</svg>
