<?xml version="1.0" encoding="UTF-8" standalone="no"?>
<!-- Created with Inkscape (http://www.inkscape.org/) -->

<svg
   width="9.180563mm"
   height="7.0279951mm"
   viewBox="0 0 9.180563 7.0279951"
   version="1.1"
   id="svg1"
   xmlns="http://www.w3.org/2000/svg"
   xmlns:svg="http://www.w3.org/2000/svg">
  <defs
     id="defs1" />
  <g
     id="layer1"
     transform="translate(-66.001763,-67.368729)">
    <g
       id="use1493"
       transform="matrix(0.35277777,0,0,0.35277777,65.114306,72.638347)"
       style="fill:#ffffff">
      <path
         d="m 6.359375,4.375 c 0.09375,0.25 0.234375,0.578125 0.65625,0.578125 0.28125,0 0.59375,-0.234375 0.59375,-0.609375 0,-0.078125 0,-0.125 -0.125,-0.375 L 3.765625,-5 7.46875,-13.890625 c 0.125,-0.3125 0.140625,-0.3125 0.140625,-0.4375 0,-0.375 -0.3125,-0.609375 -0.59375,-0.609375 -0.421875,0 -0.546875,0.296875 -0.65625,0.59375 L 2.65625,-5.4375 C 2.53125,-5.140625 2.515625,-5.125 2.515625,-5 c 0,0.09375 0,0.140625 0.109375,0.390625 z m 0,0"
         id="path4"
         style="fill:#ffffff" />
    </g>
    <g
       fill="#000000"
       fill-opacity="1"
       id="g1494"
       transform="matrix(0.35277777,0,0,0.35277777,-34.395833,-135.73125)"
       style="fill:#ffffff">
      <g
         id="use1494"
         transform="translate(290.98599,590.65399)"
         style="fill:#ffffff">
        <path
           d="m 11.015625,-13.125 c 0.07813,-0.28125 0.07813,-0.328125 0.07813,-0.40625 0,-0.296875 -0.25,-0.296875 -0.453125,-0.296875 -0.40625,0 -0.421875,0.04687 -0.515625,0.453125 l -3.1875,12.75 c -2.03125,-0.21875 -2.25,-1.28125 -2.25,-2.046875 0,-0.46875 0.046875,-1.015625 0.96875,-3.34375 C 5.953125,-6.75 6,-6.875 6,-7.21875 6,-8.359375 4.84375,-9 3.75,-9 c -2.109375,0 -3.109375,2.703125 -3.109375,3.109375 0,0.265625 0.296875,0.265625 0.46875,0.265625 0.25,0 0.390625,0 0.46875,-0.25 0.65625,-2.21875 1.734375,-2.40625 2.046875,-2.40625 0.125,0 0.34375,0 0.34375,0.40625 0,0.46875 -0.203125,0.96875 -0.4375,1.578125 -0.703125,1.75 -1.046875,2.765625 -1.046875,3.421875 0,2.640625 3.109375,2.921875 4.03125,3 0.171875,0.015625 0.203125,0.03125 0.203125,0.078125 0,0.0625 -0.359375,1.4375 -0.40625,1.625 C 6.15625,2.46875 5.859375,3.671875 5.859375,3.75 c 0,0.28125 0.28125,0.28125 0.453125,0.28125 0.359375,0 0.40625,-0.03125 0.5,-0.40625 l 0.875,-3.46875 c 2.984375,0 5.265625,-2.1875 6.21875,-4.21875 0.21875,-0.5 0.703125,-2.140625 0.703125,-3.15625 0,-1.8125 -1.34375,-1.8125 -1.359375,-1.8125 -0.765625,0 -1.515625,0.796875 -1.515625,1.515625 0,0.5625 0.421875,0.796875 0.59375,0.90625 0.78125,0.453125 1,0.8125 1,1.25 0,1.234375 -2.21875,4.78125 -5.453125,4.796875 z m 0,0"
           id="path1"
           style="fill:#ffffff" />
      </g>
    </g>
    <g
       fill="#000000"
       fill-opacity="1"
       id="g1495"
       transform="matrix(0.35277777,0,0,0.35277777,-34.395833,-135.73125)"
       style="fill:#ffffff">
      <g
         id="use1495"
         transform="translate(306.83401,590.65399)"
         style="fill:#ffffff">
        <path
           d="m 3.78125,-14.046875 c 0,-0.296875 0,-0.890625 -0.59375,-0.890625 -0.625,0 -0.625,0.578125 -0.625,0.890625 v 18.125 c 0,0.296875 0,0.90625 0.609375,0.90625 0.609375,0 0.609375,-0.578125 0.609375,-0.90625 z m 0,0"
           id="path5"
           style="fill:#ffffff" />
      </g>
    </g>
  </g>
</svg>
