<?xml version="1.0" encoding="UTF-8" standalone="no"?>
<!-- Created with Inkscape (http://www.inkscape.org/) -->

<svg
   width="135.20819mm"
   height="135.21367mm"
   viewBox="0 0 135.20819 135.21367"
   version="1.1"
   id="svg1"
   xml:space="preserve"
   xmlns="http://www.w3.org/2000/svg"
   xmlns:svg="http://www.w3.org/2000/svg"><defs
     id="defs1" /><g
     id="layer1"
     transform="translate(-8.0238079,2.881314)"><path
       style="fill:#010101;stroke:none"
       d="M 63.725985,3.8729331 C 57.120978,0.39766893 49.468579,-0.02855666 44.232973,6.254183 c -1.03734,1.2448125 -1.864562,2.6942476 -2.372473,4.233333 -0.230961,0.699869 -0.284822,1.931326 -1.003211,2.328984 -1.131369,0.626262 -3.599279,-0.03401 -4.912553,0.09739 -3.732351,0.373435 -7.344468,2.495891 -9.544191,5.51113 -1.4255,1.953983 -2.433111,4.455768 -2.602961,6.879166 -0.08621,1.229996 0.51286,3.584278 -0.07595,4.647972 -0.397659,0.718383 -1.629147,0.772256 -2.328986,1.003209 -1.539092,0.507915 -2.988533,1.335142 -4.233333,2.372473 -6.282727,5.235598 -5.856538,12.888013 -2.38125,19.493012 -9.0022038,4.283492 -9.0091478,19.525721 0,23.812499 -3.469909,6.594785 -3.897539,14.254289 2.38125,19.493012 1.256698,1.048531 2.697113,1.803281 4.233333,2.351245 0.695253,0.24799 1.932906,0.308896 2.328986,1.024437 0.62626,1.131365 -0.03401,3.599285 0.09738,4.912555 0.351147,3.50967 2.260095,6.92477 4.981965,9.1367 2.041938,1.65937 4.770835,2.82559 7.408333,3.01045 1.141226,0.08 3.988318,-0.59243 4.83171,0.19374 1.452988,1.35441 1.752324,4.71909 3.191944,6.44452 5.408435,6.4822 12.721938,5.54258 19.493012,2.38125 4.284101,9.00352 19.53034,8.9994 23.812499,0 6.594784,3.46991 14.254293,3.89754 19.493013,-2.38125 1.04852,-1.2567 1.80327,-2.69711 2.35124,-4.23333 0.2523,-0.70733 0.31275,-1.9303 1.02444,-2.35022 1.01821,-0.60078 3.44313,0.0297 4.64797,-0.0547 2.4728,-0.17331 4.87239,-1.21539 6.87917,-2.63359 3.01842,-2.13314 5.14241,-5.82838 5.51113,-9.51356 0.12852,-1.28449 -0.56103,-3.83265 0.0762,-4.912555 0.41992,-0.711698 1.64289,-0.772143 2.35022,-1.024437 1.5362,-0.547964 2.97665,-1.302731 4.23333,-2.351245 6.27881,-5.238731 5.85114,-12.898227 2.38125,-19.493012 8.99548,-4.280294 8.99265,-19.533537 0,-23.812499 3.16133,-6.771066 4.10095,-14.084589 -2.38125,-19.493012 -1.72544,-1.439616 -5.09011,-1.738952 -6.44453,-3.191948 -0.78617,-0.843391 -0.11374,-3.690488 -0.19374,-4.831706 -0.18486,-2.637516 -1.35106,-5.366379 -3.01045,-7.408333 -2.21193,-2.72187 -5.62701,-4.630805 -9.1367,-4.981963 -1.31327,-0.131395 -3.78119,0.528876 -4.91255,-0.09739 -0.71554,-0.396083 -0.77644,-1.633726 -1.02444,-2.328984 -0.54796,-1.5362109 -1.30272,-2.9766349 -2.35124,-4.233333 -5.23872,-6.27879933 -12.89822,-5.85115264 -19.493013,-2.3812499 -4.286794,-9.0091235 -19.529,-9.002228 -23.812499,0 M 74.838484,2.3621969 c 3.223495,-0.4043842 6.625419,1.4174845 8.264547,4.1565694 0.906017,1.5140064 1.005301,3.7504407 2.852039,4.4944447 2.272858,0.915674 3.682511,-2.0864764 5.28758,-3.1429445 2.434308,-1.6022762 5.796538,-1.8243557 8.466667,-0.6994324 2.537043,1.0688543 4.531913,3.4939969 4.988493,6.2270989 0.33074,1.979821 -0.61497,4.581931 1.37314,5.889022 1.74269,1.145739 3.5763,-0.555482 5.28003,-0.946462 2.8258,-0.648483 6.03848,0.0045 8.19147,1.985602 2.26821,2.087098 3.15803,5.424572 2.51946,8.417671 -0.37244,1.745686 -2.15879,3.787179 -0.98953,5.541756 1.24876,1.873868 3.27822,0.965501 5.09527,1.23002 2.85505,0.415624 5.44955,1.971165 6.77933,4.605306 1.39173,2.756865 1.26595,6.427846 -0.48853,8.995632 -0.98542,1.442208 -3.60046,2.76292 -3.26443,4.762499 0.38897,2.314572 3.27386,2.480744 4.91113,3.542274 2.36133,1.530979 3.81334,4.233075 3.94118,7.041261 0.13306,2.922843 -1.46609,6.018383 -3.94118,7.54899 -1.65215,1.0217 -4.52407,1.260703 -4.91113,3.563712 -0.32805,1.951907 2.13503,3.129613 3.11478,4.497916 1.52401,2.128423 1.99383,5.15927 1.25575,7.672715 -0.89017,3.031323 -3.43799,5.51809 -6.60315,6.046828 -1.97982,0.330729 -4.58193,-0.614973 -5.88902,1.37314 -1.10644,1.682916 0.44202,3.39221 0.88113,5.015445 0.68238,2.52254 0.24745,5.54513 -1.28638,7.6719 -2.0884,2.89572 -5.89304,4.0461 -9.31615,3.26054 -1.70374,-0.39099 -3.53734,-2.0922 -5.28003,-0.94646 -1.82552,1.20019 -1.05596,3.04968 -1.2337,4.83069 -0.24317,2.43662 -1.31397,4.68126 -3.27687,6.20995 -2.954831,2.3012 -7.540348,2.37378 -10.582111,0.19578 -1.368295,-0.97974 -2.546001,-3.44282 -4.497917,-3.11477 -2.303016,0.38706 -2.542003,3.25898 -3.563703,4.91112 -1.408142,2.27704 -3.878768,3.56433 -6.490665,3.89199 -3.234876,0.40581 -6.610162,-1.42291 -8.26537,-4.15657 -0.908371,-1.50022 -1.02971,-3.76061 -2.851211,-4.49445 -2.256524,-0.9091 -3.709879,2.03418 -5.287787,3.11233 -2.410951,1.64733 -5.797461,1.85449 -8.466464,0.73005 -2.810217,-1.18394 -4.612235,-3.79899 -5.0918,-6.75626 -0.302424,-1.86493 0.634974,-4.08856 -1.272693,-5.35986 -1.754577,-1.16927 -3.796074,0.6171 -5.541757,0.98953 -2.748273,0.58635 -5.847852,-0.11565 -7.926883,-2.02867 -2.345002,-2.15775 -3.181074,-5.61155 -2.476385,-8.68225 0.390986,-1.703743 2.092194,-3.537336 0.946455,-5.280035 -1.279294,-1.945836 -3.695048,-1.054659 -5.624436,-1.335779 -2.638667,-0.384465 -5.046564,-2.112476 -6.250168,-4.496689 -1.442447,-2.857336 -1.235376,-6.643619 0.638184,-9.260215 0.979745,-1.368303 3.442828,-2.546001 3.114775,-4.497916 -0.393651,-2.342226 -3.264774,-2.480364 -4.911124,-3.542476 -2.363121,-1.524536 -3.81355,-4.237322 -3.941189,-7.041059 -0.140295,-3.081764 1.604206,-6.160969 4.205772,-7.736204 1.611338,-0.975651 4.268197,-1.125351 4.646541,-3.376498 0.328052,-1.951915 -2.135031,-3.129613 -3.114775,-4.497916 -1.524003,-2.128407 -1.993842,-5.159286 -1.25575,-7.672715 0.940658,-3.203228 3.587874,-5.529652 6.867734,-6.105626 1.910011,-0.335413 4.335253,0.617315 5.624436,-1.3172 1.15296,-1.730103 -0.557796,-3.583575 -0.946455,-5.277173 -0.594586,-2.590927 -0.09662,-5.560804 1.547485,-7.671899 2.117423,-2.718859 5.80865,-3.755956 9.120367,-2.995957 1.693598,0.388655 3.547074,2.099419 5.277173,0.946462 1.824759,-1.216036 0.979918,-3.066456 1.190011,-4.830689 0.288443,-2.422171 1.369894,-4.6885702 3.32342,-6.2099485 2.954846,-2.3011918 7.54033,-2.3737811 10.58211,-0.195781 1.368303,0.9797447 2.546001,3.4428215 4.497916,3.1147725 2.314584,-0.388994 2.480735,-3.2738471 3.54227,-4.911126 1.464413,-2.2586637 3.871126,-3.5606756 6.512098,-3.8919861 M 63.725985,19.218766 c -4.258308,-2.423366 -9.540047,-2.598824 -14.022916,-0.68024 -1.967084,0.841874 -5.304852,2.830722 -3.507772,5.413954 1.42092,2.042519 3.71805,0.653279 5.359855,-0.164347 2.510146,-1.250069 8.168905,-2.118047 10.046814,0.825604 0.965393,1.513263 0.392055,5.474488 0.536519,7.305028 -3.517805,-1.850533 -9.495124,-3.389223 -11.754769,1.323119 -0.792753,1.653234 0.338347,3.884985 -1.006681,5.23001 -1.345029,1.345024 -3.576772,0.213932 -5.230014,1.006689 -4.712338,2.259641 -3.17366,8.236965 -1.323119,11.754765 -1.830544,-0.144468 -5.791763,0.428874 -7.30503,-0.536514 -2.943649,-1.877906 -2.075667,-7.536677 -0.8256,-10.046819 0.817628,-1.6418 2.206858,-3.938939 0.164345,-5.359855 -2.583232,-1.79708 -4.572076,1.540684 -5.413956,3.507772 -1.911057,4.465263 -1.733187,9.782114 0.680242,14.022916 -2.731534,1.274631 -4.778907,5.352637 -3.151318,8.201881 0.710967,1.244611 2.765876,2.139025 2.765876,3.704369 0,1.565343 -2.054907,2.459749 -2.765876,3.704368 -1.627597,2.849261 0.419796,6.927233 3.151318,8.201881 -3.747103,6.584304 -1.979854,14.919325 3.704166,19.764135 1.886069,1.607598 4.789529,1.854805 6.503727,3.403652 1.7009,1.536826 2.039352,4.863886 3.630058,6.730126 4.838452,5.67657 13.18948,7.44578 19.764131,3.70417 1.264603,2.70998 5.370566,4.76867 8.201881,3.15132 1.244615,-0.71097 2.139029,-2.76588 3.704368,-2.76588 1.565336,0 2.459758,2.05491 3.704369,2.76588 2.810471,1.60544 6.946006,-0.46 8.201881,-3.15132 4.280246,2.43587 9.511701,2.51741 14.022916,0.67371 1.95461,-0.79884 5.25406,-2.88265 3.50777,-5.40763 -1.47912,-2.13869 -3.65131,-0.74188 -5.359853,0.15128 -2.485265,1.2992 -8.18264,2.10981 -10.046819,-0.81233 -0.933672,-1.46355 -0.460356,-5.531592 -0.536514,-7.30503 3.503258,1.842894 9.50449,3.36967 11.754766,-1.323119 0.79276,-1.65325 -0.33834,-3.884977 1.00669,-5.230018 1.34502,-1.345024 3.57677,-0.213924 5.23001,-1.006673 4.69282,-2.250282 3.16599,-8.251515 1.32312,-11.754773 1.77343,0.07614 5.84148,-0.39715 7.30503,0.536514 2.92214,1.864195 2.11153,7.561554 0.81232,10.046819 -0.87728,1.678176 -2.25254,3.901215 -0.15107,5.359855 2.52232,1.750749 4.61012,-1.556922 5.40742,-3.507772 1.83658,-4.493782 1.75199,-9.760515 -0.6737,-14.022916 2.6913,-1.255891 4.75675,-5.391394 3.15131,-8.201881 -0.71097,-1.244619 -2.76587,-2.139009 -2.76587,-3.704368 0,-1.565344 2.0549,-2.45975 2.76587,-3.704369 1.61734,-2.831303 -0.44132,-6.937294 -3.15131,-8.201881 3.73289,-6.559394 1.95318,-14.94203 -3.70417,-19.764127 -1.86624,-1.590706 -5.19332,-1.929162 -6.73014,-3.63006 -1.54884,-1.714196 -1.79604,-4.61766 -3.40365,-6.503729 -4.85247,-5.69299 -13.173177,-7.455019 -19.764126,-3.704166 -1.27464,-2.731536 -5.352629,-4.778907 -8.201881,-3.151318 -1.244643,0.710979 -2.139017,2.765876 -3.704369,2.765876 -1.565335,0 -2.459757,-2.054913 -3.704368,-2.765876 -2.849265,-1.627597 -6.927221,0.419799 -8.201881,3.151318 m 5.820833,1.852083 c 3.245974,4.2245 8.924859,4.224476 12.170833,0 3.071001,1.467409 2.505782,6.187704 2.116666,8.995833 -0.118645,0.856214 -0.140664,2.34829 -0.777415,3.004944 -0.752813,0.776342 -2.891732,0.355607 -3.981209,1.135501 -1.151359,0.824191 -1.8526,2.443108 -3.443459,2.443108 -1.590867,0 -2.292096,-1.618909 -3.443463,-2.443108 -1.09269,-0.782196 -3.22316,-0.357948 -3.981406,-1.135501 -0.652819,-0.669444 -0.68917,-2.133098 -0.811716,-3.004944 -0.395211,-2.811666 -0.911729,-7.532308 2.151169,-8.995833 m 38.893752,30.162499 c 1.40438,-3.85922 3.57119,-9.289218 -1.5875,-11.754765 -1.64641,-0.786887 -3.88991,0.449698 -5.17673,-1.005664 -1.1645,-1.317022 -0.0442,-3.394584 -0.79559,-4.966654 -2.475916,-5.180384 -7.87972,-2.997644 -11.754766,-1.5875 0.03521,-1.705726 -0.414389,-6.142866 0.536514,-7.504289 2.690227,-3.85163 10.367282,-1.316667 12.877822,1.230851 2.35777,2.392498 1.69992,6.246809 3.82176,8.351113 2.11534,2.09787 5.94709,1.452641 8.35192,3.822571 2.54752,2.510546 5.08249,10.187596 1.23086,12.877823 -1.38559,0.967778 -5.76762,0.461938 -7.50429,0.536514 M 42.559521,29.693078 c -3.406953,0.880485 -2.073259,5.891016 1.322513,5.051791 3.163138,-0.781728 1.882088,-5.879979 -1.322513,-5.051791 m 20.108131,22.069437 c -2.879326,-0.558372 -5.528781,-0.827687 -8.466667,-0.792733 -1.208336,0.01437 -2.834182,0.682565 -3.968548,0.192519 -1.466391,-0.63348 -4.463212,-4.143327 -3.747853,-5.930258 0.344722,-0.861099 1.704575,-0.574335 2.424735,-0.662072 1.375307,-0.167561 2.640855,-0.785038 3.700286,-1.662624 1.293453,-1.071447 2.291236,-2.473259 2.713001,-4.109415 0.209289,-0.811902 -0.118775,-2.585283 0.625527,-3.117018 0.975041,-0.696574 2.772364,0.528578 3.544519,1.079973 0.638571,0.456004 1.281785,0.961812 1.823092,1.53156 1.356207,1.427473 0.645034,2.743333 0.56857,4.474235 -0.136939,3.099835 0.159123,5.969943 0.783338,8.995833 m 25.929165,0 c 0.555813,-2.866096 0.827501,-5.544381 0.792733,-8.466667 -0.01437,-1.20834 -0.682557,-2.834185 -0.192519,-3.968548 0.63348,-1.466399 4.143319,-4.463212 5.930258,-3.747849 0.799087,0.319901 0.585922,1.48485 0.637162,2.160148 0.112937,1.488491 0.696227,2.824116 1.650586,3.967732 1.077639,1.291346 2.488301,2.348734 4.146363,2.731374 0.811,0.187157 2.58476,-0.140754 3.11702,0.604291 0.69658,0.975046 -0.52857,2.772352 -1.07998,3.544519 -0.45598,0.638551 -0.96181,1.281793 -1.53156,1.823096 -1.42745,1.356191 -2.743352,0.645035 -4.47423,0.56857 -3.099827,-0.136951 -5.969952,0.159115 -8.995833,0.783334 M 69.546818,38.797932 c 3.04576,4.311881 9.117184,4.322572 12.170833,0 2.959905,1.573345 2.647569,6.123568 2.181795,8.995833 -0.466961,2.879596 -1.500821,8.110034 -4.827628,9.077086 -1.190803,0.346151 -2.70426,-0.408825 -3.96875,-0.321742 -1.051648,0.07242 -2.395978,0.885548 -3.415699,0.58245 C 70.258641,56.706891 69.3141,54.337099 68.80778,53.085431 67.358127,49.501743 65.165549,41.126795 69.546818,38.797932 M 31.975986,70.812514 c 4.224498,-3.245958 4.22448,-8.924867 0,-12.170833 1.463553,-3.062894 6.184157,-2.54638 8.995833,-2.151169 0.87185,0.122546 2.335496,0.158897 3.00494,0.811716 0.777553,0.758247 0.353317,2.888729 1.135505,3.981411 0.824186,1.15135 2.443108,1.852608 2.443108,3.443459 0,1.590842 -1.618926,2.292116 -2.443108,3.443458 -0.779886,1.089469 -0.359172,3.228389 -1.135505,3.981201 -0.65665,0.636767 -2.14873,0.658778 -3.00494,0.777424 -2.808146,0.389123 -7.52841,0.954334 -8.995833,-2.116667 m 17.727083,0 c 4.322568,-3.053641 4.311881,-9.125081 0,-12.170833 1.540103,-2.897368 5.900075,-2.63352 8.731249,-2.227932 2.951241,0.422786 8.350802,1.465043 9.34167,4.873765 0.346147,1.190803 -0.408825,2.704268 -0.321747,3.96875 0.07122,1.034142 0.890393,2.39538 0.58245,3.393648 -0.413512,1.340486 -2.626684,2.206721 -3.78154,2.749549 C 60.721973,73.06018 52.03655,75.202467 49.703069,70.812514 M 101.5614,58.641681 c -4.370429,3.087118 -4.370421,9.083723 0,12.170833 -1.573345,2.959913 -6.123576,2.647577 -8.995833,2.181795 -2.879596,-0.466977 -8.110034,-1.500829 -9.077086,-4.827628 -0.346143,-1.190787 0.408825,-2.70426 0.321742,-3.96875 -0.07242,-1.05164 -0.88554,-2.395994 -0.58245,-3.415699 0.424668,-1.428732 2.79446,-2.373264 4.046128,-2.879588 3.583687,-1.44967 11.958628,-3.64222 14.287499,0.739037 m 17.72708,0 c -4.22446,3.245966 -4.22449,8.924859 0,12.170833 -1.4674,3.071001 -6.18769,2.50579 -8.99583,2.116667 -0.85621,-0.118646 -2.34829,-0.140665 -3.00494,-0.777424 -0.77633,-0.752796 -0.35562,-2.891732 -1.13551,-3.981201 -0.82418,-1.15135 -2.4431,-1.852608 -2.4431,-3.443458 0,-1.590843 1.61891,-2.292109 2.4431,-3.443459 0.78219,-1.092682 0.35795,-3.223172 1.13551,-3.981411 0.66946,-0.652827 2.13309,-0.68917 3.00494,-0.811716 2.81167,-0.395211 7.5323,-0.911725 8.99583,2.151169 m -43.920627,3.28994 c 3.574426,-0.386322 4.120057,5.202807 0.528763,5.590953 -3.574418,0.386322 -4.120061,-5.202807 -0.528763,-5.590953 m 6.349798,28.724642 c -3.08711,-4.370421 -9.083728,-4.370421 -12.170833,0 -2.897364,-1.540095 -2.633524,-5.900075 -2.227932,-8.731249 0.425672,-2.971347 1.443104,-8.34442 4.873765,-9.34167 1.190795,-0.346143 2.70426,0.408825 3.96875,0.321742 1.051656,-0.07241 2.39597,-0.885548 3.415699,-0.582441 1.385267,0.411748 2.17406,2.60102 2.727498,3.781535 1.654308,3.528725 3.791887,12.224496 -0.586947,14.552083 M 62.667652,77.69168 c -0.588664,3.035442 -0.920475,5.891436 -0.783338,8.995833 0.07646,1.730886 0.787633,3.046762 -0.56857,4.474235 -0.541299,0.56974 -1.184521,1.075556 -1.823092,1.53156 -0.772155,0.551395 -2.569474,1.776555 -3.544519,1.079981 -0.745025,-0.532251 -0.417142,-2.306053 -0.604295,-3.117026 -0.38264,-1.65807 -1.440029,-3.068716 -2.731374,-4.146363 -1.143604,-0.954359 -2.479242,-1.537648 -3.967729,-1.650586 -0.675298,-0.05124 -1.840254,0.161925 -2.160151,-0.637162 -0.715359,-1.786931 2.281458,-5.296786 3.747853,-5.930266 1.134362,-0.490038 2.760208,0.178146 3.968548,0.192527 2.922278,0.03476 5.600591,-0.23692 8.466667,-0.792733 m 26.193749,0 c 2.808702,0.72666 5.577485,0.860841 8.466666,0.789875 1.2556,-0.03084 2.810023,-0.726216 3.967733,-0.05391 1.34087,0.778683 4.18797,4.03622 3.48408,5.794502 -0.34328,0.857514 -1.70579,0.58069 -2.42473,0.659214 -1.50845,0.164759 -2.843068,0.847114 -3.964874,1.855143 -1.169631,1.05101 -2.112403,2.371738 -2.469649,3.919754 -0.187149,0.810973 0.140738,2.584775 -0.604291,3.117026 -0.975046,0.696574 -2.772368,-0.528586 -3.544519,-1.079981 -3.504776,-2.502779 -2.379788,-5.101207 -2.38125,-8.916211 -7.27e-4,-1.896533 -0.951476,-4.298203 -0.529166,-6.085417 m -46.037499,0.529167 c -1.410165,3.875054 -3.592868,9.27885 1.5875,11.754773 1.572078,0.751359 3.649628,-0.368921 4.966654,0.795583 1.455366,1.286816 0.218773,3.530316 1.00566,5.176727 2.465547,5.158675 7.895545,2.991904 11.754769,1.5875 -0.07457,1.736667 0.431264,6.118705 -0.536519,7.504295 -2.690222,3.85161 -10.367264,1.31667 -12.877814,-1.23086 -2.369934,-2.40483 -1.724701,-6.236584 -3.822575,-8.351926 C 42.797269,93.3351 38.942958,93.992957 36.55046,91.635171 34.002939,89.124617 31.467988,81.447583 35.319617,78.757356 c 1.361413,-0.950894 5.798567,-0.501309 7.504285,-0.536514 m 38.893749,30.162498 c -3.245966,-4.22448 -8.924871,-4.2245 -12.170833,0 -3.062902,-1.46355 -2.54638,-6.18416 -2.151169,-8.995832 0.122546,-0.871846 0.158889,-2.3355 0.811716,-3.004936 0.758251,-0.777561 2.888716,-0.353322 3.981406,-1.135509 1.151359,-0.824191 1.852617,-2.443108 3.443463,-2.443108 1.594711,0 2.286101,1.622196 3.443459,2.442293 1.083978,0.768097 3.214266,0.343769 3.981209,1.136324 0.636516,0.657776 0.658665,2.147915 0.777415,3.004936 0.389116,2.808152 0.954335,7.528402 -2.116666,8.995842 M 106.85817,94.896944 c -2.87877,1.503332 -0.60995,6.163626 2.37125,4.670839 3.13258,-1.56859 0.70975,-6.279768 -2.37125,-4.670839 z"
       id="path1" /></g></svg>
